HIERARCHY
ROOT SpineBase
{
  OFFSET 0.000000 0.000000 0.000000
  CHANNELS 6 Xposition Yposition Zposition Zrotation Xrotation Yrotation
  JOINT SpineMid
  {
    OFFSET 0.000000 30.548982 0.000000
    CHANNELS 3 Zrotation Xrotation Yrotation
    JOINT SpineShoulder
    {
      OFFSET 0.088107 22.600666 -0.704314
      CHANNELS 3 Zrotation Xrotation Yrotation
      JOINT Neck
      {
        OFFSET 0.064922 7.448065 -0.540839
        CHANNELS 3 Zrotation Xrotation Yrotation
        JOINT Head
        {
          OFFSET 6.056964 12.446382 3.574657
          CHANNELS 3 Zrotation Xrotation Yrotation
          End Site
          {
            OFFSET 0 0 0
          }
        }
      }
      JOINT ShoulderLeft
      {
        OFFSET -7.883824 -3.449121 -13.937088
        CHANNELS 3 Zrotation Xrotation Yrotation
        JOINT ElbowLeft
        {
          OFFSET 5.925522 -20.789069 -12.166921
          CHANNELS 3 Zrotation Xrotation Yrotation
          JOINT WristLeft
          {
            OFFSET 25.230863 -7.750207 -2.788762
            CHANNELS 3 Zrotation Xrotation Yrotation
            JOINT HandLeft
            {
              OFFSET 9.722005 -0.026225 0.111771
              CHANNELS 3 Zrotation Xrotation Yrotation
              JOINT HandTipLeft
              {
                OFFSET 6.517691 -1.861746 -1.818915
                CHANNELS 3 Zrotation Xrotation Yrotation
                End Site
                {
                  OFFSET 0 0 0
                }
              }
              JOINT ThumbLeft
              {
                OFFSET 5.822552 -4.842112 -4.405608
                CHANNELS 3 Zrotation Xrotation Yrotation
                End Site
                {
                  OFFSET 0 0 0
                }
              }
            }
          }
        }
      }
      JOINT ShoulderRight
      {
        OFFSET 10.804791 -3.237033 11.295327
        CHANNELS 3 Zrotation Xrotation Yrotation
        JOINT ElbowRight
        {
          OFFSET 10.208416 -19.142603 -11.553292
          CHANNELS 3 Zrotation Xrotation Yrotation
          JOINT WristRight
          {
            OFFSET 10.176103 -14.949372 -11.480735
            CHANNELS 3 Zrotation Xrotation Yrotation
            JOINT HandRight
            {
              OFFSET 4.875487 -2.978375 -11.091973
              CHANNELS 3 Zrotation Xrotation Yrotation
              JOINT HandTipRight
              {
                OFFSET 2.146371 -1.220560 -2.244004
                CHANNELS 3 Zrotation Xrotation Yrotation
                End Site
                {
                  OFFSET 0 0 0
                }
              }
              JOINT ThumbRight
              {
                OFFSET -1.494349 -2.248619 -1.996453
                CHANNELS 3 Zrotation Xrotation Yrotation
                End Site
                {
                  OFFSET 0 0 0
                }
              }
            }
          }
        }
      }
    }
  }
  JOINT HipLeft
  {
    OFFSET -3.765498 1.537850 -9.168589
    CHANNELS 3 Zrotation Xrotation Yrotation
    JOINT KneeLeft
    {
      OFFSET -10.445955 -39.412000 -1.822090
      CHANNELS 3 Zrotation Xrotation Yrotation
      JOINT AnkleLeft
      {
        OFFSET -10.158268 -35.959604 5.546948
        CHANNELS 3 Zrotation Xrotation Yrotation
        JOINT FootLeft
        {
          OFFSET 0.510095 -8.099169 -5.645396
          CHANNELS 3 Zrotation Xrotation Yrotation
          End Site
          {
            OFFSET 0 0 0
          }
        }
      }
    }
  }
  JOINT HipRight
  {
    OFFSET 4.595766 -0.340566 2.081917
    CHANNELS 3 Zrotation Xrotation Yrotation
    JOINT KneeRight
    {
      OFFSET -1.168616 -37.919551 4.624212
      CHANNELS 3 Zrotation Xrotation Yrotation
      JOINT AnkleRight
      {
        OFFSET -4.157748 -35.810264 15.824208
        CHANNELS 3 Zrotation Xrotation Yrotation
        JOINT FootRight
        {
          OFFSET 8.199755 -4.599030 -9.125818
          CHANNELS 3 Zrotation Xrotation Yrotation
          End Site
          {
            OFFSET 0 0 0
          }
        }
      }
    }
  }
}
MOTION
Frames: 15
Frame Time: 0.033333
-38.048964 83.882583 338.876277 -6.171650 -5.027415 -46.284019 -0.015485 -0.174611 45.836843 -0.028548 -0.119349 -0.241475 18.532326 2.071445 -2.777048 0.000000 0.000000 0.000000 -20.297424 -5.182425 14.807849 17.849432 8.546450 4.258017 4.233984 -5.536545 9.067029 0.746595 4.446431 -5.954772 0.000000 0.000000 0.000000 0.000000 0.000000 0.000000 9.657221 0.493049 -4.682740 68.412653 50.181545 -37.184825 -36.413677 -13.952974 -8.843120 -9.605026 -19.402448 9.048027 0.000000 0.000000 0.000000 0.000000 0.000000 0.000000 -0.560511 6.483890 46.241531 1.514987 -1.999834 0.415114 4.249203 7.072376 -3.125263 0.000000 0.000000 0.000000 3.133345 4.865368 45.752669 -2.037830 3.393857 -0.966617 -26.629040 -28.995844 -10.795105 0.000000 0.000000 0.000000
-37.694826 83.853610 338.777270 -6.051758 -5.133662 -47.508213 -0.011825 -0.165361 47.065327 -0.027607 -0.105067 -0.234894 17.853018 2.084103 -2.546544 0.000000 0.000000 0.000000 -18.580700 -4.970114 13.545108 13.468166 9.197182 6.018129 8.712042 -5.844072 7.289706 -2.627847 4.532213 -5.523311 0.000000 0.000000 0.000000 0.000000 0.000000 0.000000 6.260583 -2.351162 -4.240402 72.041941 49.831317 -39.711384 -35.408544 -11.351958 -6.541123 -8.807909 -21.142492 5.887651 0.000000 0.000000 0.000000 0.000000 0.000000 0.000000 -0.791266 6.177581 47.542577 1.255748 -1.778930 0.277357 3.435953 6.048070 -2.214640 0.000000 0.000000 0.000000 2.962280 5.137175 47.000407 -2.540012 3.253256 -1.086175 -27.191711 -29.648492 -9.901915 0.000000 0.000000 0.000000
-37.320134 83.801745 338.731743 -5.795616 -5.288511 -48.651294 -0.091977 -0.184175 48.224320 -0.047759 -0.128769 -0.228034 17.009265 2.217242 -2.327343 0.000000 0.000000 0.000000 -16.753486 -4.673590 12.219891 9.183081 9.623968 7.700909 12.331694 -6.059884 5.721999 -5.223721 4.237546 -5.848487 0.000000 0.000000 0.000000 0.000000 0.000000 0.000000 2.843246 -4.925775 -3.804819 76.958725 48.949048 -43.192935 -33.340685 -9.526493 -6.826774 -8.234964 -22.869009 5.467190 0.000000 0.000000 0.000000 0.000000 0.000000 0.000000 -1.208620 5.841945 48.759322 1.005220 -1.616226 0.154985 1.928216 4.044623 -0.836937 0.000000 0.000000 0.000000 2.490175 5.304038 48.184334 -2.897299 2.989111 -1.191589 -27.375339 -30.017965 -8.968310 0.000000 0.000000 0.000000
-37.018225 83.725403 338.716547 -5.515817 -5.424182 -49.533193 -0.174133 -0.207071 49.125467 -0.067762 -0.150061 -0.220178 16.026403 2.286531 -2.030338 0.000000 0.000000 0.000000 -15.162147 -4.403959 11.046868 5.836600 9.801922 8.785126 14.395863 -6.025436 5.393720 -6.925749 4.021672 -6.148119 0.000000 0.000000 0.000000 0.000000 0.000000 0.000000 0.550361 -6.680608 -3.660317 81.730493 48.625989 -46.706318 -32.119394 -10.570095 -9.150819 -6.683408 -22.082008 7.290582 0.000000 0.000000 0.000000 0.000000 0.000000 0.000000 -1.568903 5.571832 49.694477 0.694854 -1.479194 0.050641 -0.257928 0.883939 0.905119 0.000000 0.000000 0.000000 1.932002 5.396750 49.111265 -3.089634 2.703834 -1.265562 -26.999203 -29.935528 -7.145969 0.000000 0.000000 0.000000
-36.820809 83.662068 338.733867 -5.296502 -5.560163 -50.101166 -0.259781 -0.219992 49.708724 -0.063287 -0.200049 -0.215113 15.243010 2.477734 -1.862744 0.000000 0.000000 0.000000 -13.895767 -4.074719 10.156297 3.704742 9.787847 9.234832 15.162242 -5.792918 5.033790 -7.293385 3.453344 -7.523714 0.000000 0.000000 0.000000 0.000000 0.000000 0.000000 -0.554811 -7.550427 -3.719433 87.361888 48.211939 -51.126217 -32.379046 -12.638942 -12.020042 -3.777702 -20.744049 8.434576 0.000000 0.000000 0.000000 0.000000 0.000000 0.000000 -1.803111 5.464094 50.289616 0.349931 -1.360993 -0.027733 -3.172737 -3.127947 2.955856 0.000000 0.000000 0.000000 1.429961 5.499153 49.715925 -3.248118 2.442545 -1.335118 -27.025231 -30.147719 -6.251021 0.000000 0.000000 0.000000
-36.674064 83.613369 338.778841 -5.135395 -5.691378 -50.490359 -0.340072 -0.226713 50.109010 -0.058397 -0.259020 -0.212422 14.818126 2.619228 -1.780540 0.000000 0.000000 0.000000 -13.365243 -3.861806 9.773351 3.379629 9.719797 8.550486 14.630176 -5.308220 5.535378 -6.726572 3.381245 -6.878677 0.000000 0.000000 0.000000 0.000000 0.000000 0.000000 -0.166338 -7.172368 -3.866519 91.766373 47.510518 -54.795278 -35.942828 -15.970660 -13.777686 0.057113 -17.951086 7.640189 0.000000 0.000000 0.000000 0.000000 0.000000 0.000000 -1.973199 5.441877 50.693169 0.053211 -1.238843 -0.091586 0.330382 0.117260 0.932027 0.000000 0.000000 0.000000 1.006057 5.599180 50.133050 -3.492946 2.204442 -1.440872 -28.051596 -31.203747 -6.670740 0.000000 0.000000 0.000000
-36.593090 83.591288 338.854023 -5.050629 -5.826760 -50.712192 -0.397498 -0.230869 50.335017 -0.039890 -0.334781 -0.212430 14.529343 2.785022 -1.731498 0.000000 0.000000 0.000000 -14.110180 -3.882027 10.227506 5.724173 9.669527 6.426365 12.641717 -4.650281 6.277032 -4.708599 3.231219 -6.531394 0.000000 0.000000 0.000000 0.000000 0.000000 0.000000 2.803290 -5.353477 -4.726979 91.999465 49.476656 -55.936883 -32.598592 -16.341916 -17.859703 -1.269134 -18.786542 12.371726 0.000000 0.000000 0.000000 0.000000 0.000000 0.000000 -2.117966 5.544855 50.909611 -0.162209 -1.186428 -0.120274 0.618070 0.346366 0.874906 0.000000 0.000000 0.000000 0.632606 5.709988 50.371844 -3.549297 2.029737 -1.488856 -27.399399 -30.850115 -6.766761 0.000000 0.000000 0.000000
-36.564954 83.595698 338.923802 -5.036446 -5.954606 -50.863026 -0.418107 -0.234923 50.483213 0.001732 -0.421371 -0.214206 14.207567 3.061347 -1.710802 0.000000 0.000000 0.000000 -13.816326 -3.646333 10.063225 6.093335 9.675881 5.987714 11.726181 -4.399790 6.563218 -3.501283 3.103948 -6.785116 0.000000 0.000000 0.000000 0.000000 0.000000 0.000000 4.536126 -4.768722 -5.618133 96.959396 50.760268 -60.850520 -32.720098 -20.565264 -22.537701 -2.242472 -17.485909 16.393596 0.000000 0.000000 0.000000 0.000000 0.000000 0.000000 -2.212351 5.678914 51.053216 -0.252967 -1.125162 -0.135798 0.638748 0.591399 0.922529 0.000000 0.000000 0.000000 0.348354 5.833232 50.529907 -3.528439 1.889295 -1.505704 -27.197704 -30.733145 -7.680023 0.000000 0.000000 0.000000
-36.520589 83.614652 339.008035 -4.991498 -6.084297 -51.076977 -0.456542 -0.245745 50.697756 0.027378 -0.488907 -0.215056 13.975496 3.253981 -1.684140 0.000000 0.000000 0.000000 -13.591159 -3.447702 9.935191 6.244246 9.636727 5.485628 11.377719 -4.171369 7.502077 -2.452559 3.093085 -7.482597 0.000000 0.000000 0.000000 0.000000 0.000000 0.000000 6.614595 -4.115449 -6.669349 100.812222 51.919191 -65.207709 -33.513696 -23.632279 -25.637678 -4.107622 -17.455423 19.316075 0.000000 0.000000 0.000000 0.000000 0.000000 0.000000 -2.380897 5.767873 51.263750 -0.298783 -1.093421 -0.146221 0.552789 0.802013 1.041684 0.000000 0.000000 0.000000 0.010219 5.948613 50.756963 -3.487374 1.668339 -1.512131 -27.654602 -31.041641 -8.858586 0.000000 0.000000 0.000000
-36.488755 83.641658 339.064597 -4.971873 -6.176633 -51.335524 -0.493331 -0.247561 50.956285 0.072415 -0.532148 -0.215463 13.865732 3.296884 -1.643720 0.000000 0.000000 0.000000 -13.452181 -3.335239 9.838300 6.473775 9.645362 5.216024 10.457741 -4.011473 7.811992 -1.910540 2.655802 -8.994922 0.000000 0.000000 0.000000 0.000000 0.000000 0.000000 8.152690 -4.035015 -7.674160 105.035497 53.041977 -69.898748 -35.181571 -26.869261 -28.257838 -6.343697 -18.659016 20.945004 0.000000 0.000000 0.000000 0.000000 0.000000 0.000000 -2.489535 5.805068 51.526337 -0.306916 -1.059981 -0.155061 0.255767 1.284401 1.306410 0.000000 0.000000 0.000000 -0.259956 6.062323 51.026649 -3.456039 1.443719 -1.513341 -27.230108 -30.682634 -9.489642 0.000000 0.000000 0.000000
-36.477775 83.671371 339.092108 -4.971631 -6.223232 -51.672735 -0.431386 -0.231805 51.289458 0.151041 -0.558329 -0.211726 13.627180 3.526208 -1.696065 0.000000 0.000000 0.000000 -13.478122 -3.271162 9.772573 6.281642 9.657868 5.045168 9.948268 -3.870833 7.746816 -1.997053 2.240788 -9.916213 0.000000 0.000000 0.000000 0.000000 0.000000 0.000000 8.630656 -4.591251 -8.445038 109.672900 52.898173 -74.661326 -40.202089 -31.291800 -31.213794 -7.425914 -18.630096 21.119976 0.000000 0.000000 0.000000 0.000000 0.000000 0.000000 -2.554305 5.794864 51.871296 -0.312937 -1.051110 -0.161044 0.250648 1.743119 1.358296 0.000000 0.000000 0.000000 -0.408046 6.171387 51.372770 -3.470877 1.221775 -1.508070 -27.270913 -30.602477 -10.251993 0.000000 0.000000 0.000000
-36.464565 83.686646 339.130204 -4.992569 -6.213833 -52.084854 -0.371352 -0.209920 51.697858 0.231130 -0.570169 -0.208504 13.740097 3.504300 -1.764681 0.000000 0.000000 0.000000 -13.464021 -3.354267 9.637188 5.713049 9.716891 4.925443 9.566258 -3.676425 6.934868 -3.803788 1.657397 -10.341780 0.000000 0.000000 0.000000 0.000000 0.000000 0.000000 7.917450 -5.639401 -8.718922 109.170731 51.982635 -74.576699 -39.549583 -30.879781 -30.969737 -5.642855 -19.249257 19.790381 0.000000 0.000000 0.000000 0.000000 0.000000 0.000000 -2.600907 5.791950 52.280829 -0.378986 -1.161830 -0.145433 0.437425 2.177052 1.291391 0.000000 0.000000 0.000000 -0.523493 6.294514 51.794678 -3.501625 0.967671 -1.505174 -26.770070 -30.146873 -10.278715 0.000000 0.000000 0.000000
-36.372867 83.727311 339.219228 -4.898071 -6.332522 -52.483703 -0.179339 -0.152821 52.092516 0.311610 -0.552489 -0.193440 13.102990 4.244327 -1.997240 0.000000 0.000000 0.000000 -13.736198 -3.301897 9.577088 4.950814 9.789978 4.877090 8.920353 -3.449861 5.881372 -4.193179 0.716161 -11.998162 0.000000 0.000000 0.000000 0.000000 0.000000 0.000000 5.971247 -6.613546 -8.485315 105.437384 49.117945 -71.228486 -54.072198 -38.144896 -33.627181 -0.929050 -7.173560 16.088733 0.000000 0.000000 0.000000 0.000000 0.000000 0.000000 -2.923847 5.743503 52.688555 -0.337476 -1.321605 -0.120233 0.571665 2.245358 1.224753 0.000000 0.000000 0.000000 -1.004452 6.349618 52.217257 -3.332329 0.585367 -1.471423 -25.950375 -29.407558 -10.146156 0.000000 0.000000 0.000000
-36.348936 83.705864 339.215506 -4.875706 -6.400148 -53.181723 0.031035 -0.135762 52.780811 0.371334 -0.531602 -0.183511 13.572636 4.824342 -2.549005 0.000000 0.000000 0.000000 -13.954199 -3.581730 9.423001 4.138010 10.077479 4.404242 7.930695 -2.999122 5.209264 -5.515944 0.038139 -11.526461 0.000000 0.000000 0.000000 0.000000 0.000000 0.000000 3.401782 -8.391233 -8.324244 105.462583 45.525992 -71.089360 -68.080004 -44.321856 -37.325873 1.848701 1.321808 12.584931 0.000000 0.000000 0.000000 0.000000 0.000000 0.000000 -3.107255 5.704685 53.394565 -0.384419 -1.445060 -0.106222 0.724620 2.129573 1.151578 0.000000 0.000000 0.000000 -1.138500 6.484619 52.930795 -3.391688 0.501361 -1.463671 -24.933667 -28.587805 -8.943871 0.000000 0.000000 0.000000
-36.369658 83.680022 339.128698 -4.710277 -6.440785 -54.324789 0.236009 -0.062096 53.928099 0.414960 -0.479341 -0.165209 13.612049 5.374826 -3.015322 0.000000 0.000000 0.000000 -14.466106 -4.224022 9.217690 3.182895 10.512018 3.445008 6.920680 -2.259034 3.844313 -6.647938 -1.253258 -11.917899 0.000000 0.000000 0.000000 0.000000 0.000000 0.000000 -0.215871 -11.019235 -8.221122 106.652828 41.802353 -71.955858 -69.709462 -47.093469 -40.024671 0.814987 2.837828 14.776388 0.000000 0.000000 0.000000 0.000000 0.000000 0.000000 -3.312246 5.468137 54.568064 -0.470261 -1.519622 -0.105385 0.886946 1.965218 1.071089 0.000000 0.000000 0.000000 -1.168157 6.576972 54.106763 -3.716425 0.542578 -1.497839 -24.654368 -28.373138 -8.906161 0.000000 0.000000 0.000000
